<?xml version="1.0" encoding="UTF-8" standalone="no"?>
<svg
   version="1.1"
   viewBox="0 0 223.16933 185.03999"
   id="svg323"
   sodipodi:docname="v11.svg"
   inkscape:version="1.1.2 (0a00cf5339, 2022-02-04)"
   width="223.16933"
   height="185.03999"
   xmlns:inkscape="http://www.inkscape.org/namespaces/inkscape"
   xmlns:sodipodi="http://sodipodi.sourceforge.net/DTD/sodipodi-0.dtd"
   xmlns="http://www.w3.org/2000/svg"
   xmlns:svg="http://www.w3.org/2000/svg">
  <defs
     id="defs327" />
  <sodipodi:namedview
     id="namedview325"
     pagecolor="#ffffff"
     bordercolor="#666666"
     borderopacity="1.0"
     inkscape:pageshadow="2"
     inkscape:pageopacity="0.0"
     inkscape:pagecheckerboard="0"
     showgrid="false"
     inkscape:zoom="1.03125"
     inkscape:cx="108.12121"
     inkscape:cy="111.0303"
     inkscape:window-width="1304"
     inkscape:window-height="704"
     inkscape:window-x="0"
     inkscape:window-y="0"
     inkscape:window-maximized="1"
     inkscape:current-layer="svg323"
     fit-margin-top="0"
     fit-margin-left="0"
     fit-margin-right="0"
     fit-margin-bottom="0" />
  <g
     stroke-width="2"
     fill="none"
     stroke-linecap="butt"
     id="g263"
     transform="translate(-221.36439,-144.98)">
    <path
       stroke="#80c080"
       vector-effect="non-scaling-stroke"
       d="m 222.68,326.91 q -0.66,0.92 0.06,1.75 0.31,0.36 0.78,0.36 l 218.94,-0.01 q 0.58,0 0.88,-0.51 0.43,-0.75 -0.05,-1.72 a 2.29,2.29 0 0 1 -0.25,-1.04 l -0.03,-176.68 q 0,-0.53 0.26,-0.99 0.42,-0.74 0.19,-1.5 -0.18,-0.59 -0.79,-0.59 H 223.25 q -0.58,0 -0.69,0.57 c -0.22,1.1 0.42,2.53 0.42,3.77 q 0,88 0.01,175.67 a 1.54,1.52 -26.7 0 1 -0.31,0.92"
       id="path207" />
    <path
       stroke="#80c080"
       vector-effect="non-scaling-stroke"
       d="m 227.15,148.02 a 0.32,0.32 0 0 0 -0.21,0.57 l 7.72,6.32 a 0.32,0.32 0 0 0 0.2,0.07 l 196.3,0.01 a 0.32,0.32 0 0 0 0.21,-0.07 l 7.63,-6.33 a 0.32,0.32 0 0 0 -0.21,-0.57 H 227.15"
       id="path209" />
    <path
       stroke="#80c080"
       vector-effect="non-scaling-stroke"
       d="m 225.03,324.48 a 0.31,0.31 0 0 0 0.51,0.24 l 7.3,-6.06 a 0.31,0.31 0 0 0 0.11,-0.24 V 156.38 a 0.31,0.31 0 0 0 -0.11,-0.24 l -7.3,-6.08 a 0.31,0.31 0 0 0 -0.51,0.24 v 174.18"
       id="path211" />
    <path
       stroke="#80c080"
       vector-effect="non-scaling-stroke"
       d="m 440.99,150.48 a 0.37,0.37 0 0 0 -0.6,-0.29 l -7.23,5.92 a 0.37,0.37 0 0 0 -0.14,0.29 v 162.05 a 0.37,0.37 0 0 0 0.14,0.29 l 7.22,5.89 a 0.37,0.37 0 0 0 0.6,-0.29 l 0.01,-173.86"
       id="path213" />
    <path
       stroke="#80c080"
       vector-effect="non-scaling-stroke"
       d="m 275.05,159.62 q -0.05,1.39 0.5,2.99 0.49,1.42 0.49,3.41 -0.03,29.36 -0.02,58.73 0,2.72 -0.1,5.45 -0.33,9.29 -0.03,30.35 0.01,0.52 -0.48,0.71 -0.81,0.32 -1.73,-0.08 a 1.97,1.9 56.1 0 0 -0.79,-0.17 l -36.15,0.02 q -1.72,0 -1.72,1.73 l 0.01,55 a 0.23,0.23 0 0 0 0.23,0.23 L 430.37,318 a 0.62,0.62 0 0 0 0.62,-0.62 V 157.76 q 0,-0.73 -0.73,-0.73 L 235.5,157.01 q -0.5,0 -0.49,0.49 v 0.88 q 0,0.62 0.62,0.62 l 38.82,-0.01 q 0.63,0 0.6,0.63"
       id="path215" />
    <path
       stroke="#80c080"
       vector-effect="non-scaling-stroke"
       d="m 236.4,161.02 a 0.4,0.4 0 0 0 -0.35,0.59 l 1.14,2.17 a 0.4,0.4 0 0 0 0.35,0.21 l 34.88,-0.01 a 0.4,0.4 0 0 0 0.4,-0.41 l -0.06,-2.16 a 0.4,0.4 0 0 0 -0.4,-0.39 H 236.4"
       id="path217" />
    <path
       stroke="#80c080"
       vector-effect="non-scaling-stroke"
       d="m 272.74,166.42 a 0.4,0.4 0 0 0 -0.4,-0.4 h -34.68 a 0.4,0.4 0 0 0 -0.4,0.4 v 25.1 a 0.4,0.4 0 0 0 0.4,0.4 h 34.68 a 0.4,0.4 0 0 0 0.4,-0.4 v -25.1"
       id="path219" />
    <path
       stroke="#80c080"
       vector-effect="non-scaling-stroke"
       d="m 272.74,194.47 a 0.46,0.46 0 0 0 -0.46,-0.46 h -34.6 a 0.46,0.46 0 0 0 -0.46,0.46 v 0.04 a 0.46,0.46 0 0 0 0.46,0.46 h 34.6 a 0.46,0.46 0 0 0 0.46,-0.46 v -0.04"
       id="path221" />
    <path
       stroke="#80c080"
       vector-effect="non-scaling-stroke"
       d="m 237.62,197.08 a 0.41,0.41 0 0 0 -0.41,0.41 l -0.2,26.02 a 0.41,0.41 0 0 0 0.41,0.41 l 34.74,0.01 a 0.41,0.41 0 0 0 0.41,-0.41 l 0.14,-26.03 a 0.41,0.41 0 0 0 -0.41,-0.41 h -34.68"
       id="path223" />
    <path
       stroke="#80c080"
       vector-effect="non-scaling-stroke"
       d="m 272.52,226.47 a 0.46,0.46 0 0 0 -0.46,-0.46 h -34.52 a 0.46,0.46 0 0 0 -0.46,0.46 v 0.04 a 0.46,0.46 0 0 0 0.46,0.46 h 34.52 a 0.46,0.46 0 0 0 0.46,-0.46 v -0.04"
       id="path225" />
    <path
       stroke="#80c080"
       vector-effect="non-scaling-stroke"
       d="m 272.5436,229.5011 a 0.39,0.39 0 0 0 -0.3893,-0.3907 l -34.7799,-0.0607 a 0.39,0.39 0 0 0 -0.3907,0.3893 l -0.0473,27.1199 a 0.39,0.39 0 0 0 0.3893,0.3907 l 34.7799,0.0607 a 0.39,0.39 0 0 0 0.3907,-0.3893 l 0.0473,-27.1199"
       id="path227" />
    <path
       stroke="#80c080"
       vector-effect="non-scaling-stroke"
       d="m 439.07,326.99 a 0.32,0.32 0 0 0 0.2,-0.57 l -7.67,-6.34 a 0.32,0.32 0 0 0 -0.21,-0.07 l -196.78,0.01 a 0.32,0.32 0 0 0 -0.2,0.07 l -7.67,6.33 a 0.32,0.32 0 0 0 0.2,0.57 h 212.13"
       id="path229" />
    <path
       stroke="#ff8080"
       vector-effect="non-scaling-stroke"
       d="m 354.77,194.23 33.82,-0.14 a 0.43,0.43 0 0 0 0.43,-0.43 l 0.02,-31.16 q 0,-0.66 -0.65,-0.55 -1.78,0.3 -3.46,-0.38 -1.55,-0.61 -3.22,-0.57 -16.23,0.37 -32.28,0.21 -0.6,-0.01 -1.19,-0.16 c -1.54,-0.39 -3.12,0.24 -4.73,0.26 q -17.33,0.31 -33.28,0.1 -0.42,0 -0.41,0.41 0.29,14.4 0.13,27.71 -0.01,1.22 -0.15,2.45 c -0.23,1.98 0.17,4.1 0.17,6.11 0.02,7.99 0.2,15.9 -0.07,23.73 q -0.08,2.42 -0.02,5.04 0.34,13.35 -0.09,26.21 -0.02,0.51 0.49,0.51 20,-0.06 36.37,-0.1 3.07,-0.01 6.8,-0.19 a 0.59,0.59 0 0 0 0.57,-0.59 v -57.72 q 0,-0.74 0.75,-0.75"
       id="path231" />
    <path
       stroke="#8080ff"
       vector-effect="non-scaling-stroke"
       d="m 281.99,308.62 a 0.4,0.4 0 0 0 0.4,0.4 h 33.67 a 0.4,0.4 0 0 0 0.4,-0.4 l 0.03,-38.24 a 0.4,0.4 0 0 0 -0.4,-0.4 H 282.4 a 0.4,0.4 0 0 0 -0.4,0.4 l -0.01,38.24"
       id="path233" />
    <path
       stroke="#ff8080"
       vector-effect="non-scaling-stroke"
       d="m 315.99,165.03 a 0.43,0.43 0 0 0 -0.35,-0.42 l -3.14,-0.58 a 0.43,0.43 0 0 0 -0.51,0.43 l 0.17,26.37 a 0.43,0.43 0 0 0 0.43,0.43 l 2.95,-0.03 a 0.43,0.43 0 0 0 0.43,-0.43 l 0.02,-25.77"
       id="path235" />
    <path
       stroke="#ff8080"
       vector-effect="non-scaling-stroke"
       d="m 381.9447,164.9413 a 0.34,0.34 0 0 0 -0.3412,-0.3388 l -27.2398,0.0951 a 0.34,0.34 0 0 0 -0.3389,0.3412 l 0.0905,25.9199 a 0.34,0.34 0 0 0 0.3412,0.3388 l 27.2398,-0.0951 a 0.34,0.34 0 0 0 0.3389,-0.3412 l -0.0905,-25.9199"
       id="path237" />
    <path
       stroke="#ff8080"
       vector-effect="non-scaling-stroke"
       d="m 386.99,164.97 a 0.43,0.43 0 0 0 -0.43,-0.43 h -2.1 a 0.43,0.43 0 0 0 -0.43,0.43 v 26.26 a 0.43,0.43 0 0 0 0.43,0.43 h 2.1 a 0.43,0.43 0 0 0 0.43,-0.43 v -26.26"
       id="path239" />
    <path
       stroke="#ff8080"
       vector-effect="non-scaling-stroke"
       d="m 345.9049,165.0913 a 0.26,0.26 0 0 0 -0.2609,-0.2591 l -27.4198,0.0957 a 0.26,0.26 0 0 0 -0.2591,0.2609 l 0.09,25.7799 a 0.26,0.26 0 0 0 0.2609,0.2591 l 27.4198,-0.0957 a 0.26,0.26 0 0 0 0.2591,-0.2609 l -0.09,-25.7799"
       id="path241" />
    <path
       stroke="#ff8080"
       vector-effect="non-scaling-stroke"
       d="m 351.9276,165.1767 a 0.35,0.35 0 0 0 -0.3506,-0.3494 l -3.16,0.005 a 0.35,0.35 0 0 0 -0.3494,0.3506 l 0.0448,25.6599 a 0.35,0.35 0 0 0 0.3506,0.3494 l 3.16,-0.006 a 0.35,0.35 0 0 0 0.3494,-0.3506 l -0.0448,-25.6599"
       id="path243" />
    <path
       stroke="#ff8080"
       vector-effect="non-scaling-stroke"
       d="m 315.9272,194.4267 a 0.51,0.51 0 0 0 -0.5109,-0.5092 l -2.84,0.005 a 0.51,0.51 0 0 0 -0.5091,0.5109 l 0.0456,26.1799 a 0.51,0.51 0 0 0 0.5109,0.5092 l 2.84,-0.005 a 0.51,0.51 0 0 0 0.5091,-0.5109 l -0.0456,-26.1799"
       id="path245" />
    <path
       stroke="#ff8080"
       vector-effect="non-scaling-stroke"
       d="m 351.95,194.88 a 0.45,0.45 0 0 0 -0.45,-0.45 h -2.94 a 0.45,0.45 0 0 0 -0.45,0.45 v 25.82 a 0.45,0.45 0 0 0 0.45,0.45 h 2.94 a 0.45,0.45 0 0 0 0.45,-0.45 v -25.82"
       id="path247" />
    <path
       stroke="#ff8080"
       vector-effect="non-scaling-stroke"
       d="m 345.968,195.1256 a 0.64,0.64 0 0 0 -0.6412,-0.6389 l -26.6999,0.0466 a 0.64,0.64 0 0 0 -0.6389,0.6411 l 0.044,25.24 a 0.64,0.64 0 0 0 0.6412,0.6389 l 26.6999,-0.0466 a 0.64,0.64 0 0 0 0.6389,-0.6411 l -0.044,-25.24"
       id="path249" />
    <path
       stroke="#ff8080"
       vector-effect="non-scaling-stroke"
       d="m 315.99,224.21 a 0.4,0.4 0 0 0 -0.4,-0.4 h -3.16 a 0.4,0.4 0 0 0 -0.4,0.4 v 26.46 a 0.4,0.4 0 0 0 0.4,0.4 h 3.16 a 0.4,0.4 0 0 0 0.4,-0.4 v -26.46"
       id="path251" />
    <path
       stroke="#ff8080"
       vector-effect="non-scaling-stroke"
       d="m 351.98,224.23 a 0.39,0.39 0 0 0 -0.39,-0.39 h -3.14 a 0.39,0.39 0 0 0 -0.39,0.39 v 26.38 a 0.39,0.39 0 0 0 0.39,0.39 h 3.14 a 0.39,0.39 0 0 0 0.39,-0.39 v -26.38"
       id="path253" />
    <path
       stroke="#ff8080"
       vector-effect="non-scaling-stroke"
       d="m 345.98,224.44 a 0.45,0.45 0 0 0 -0.45,-0.45 h -27.08 a 0.45,0.45 0 0 0 -0.45,0.45 v 26.12 a 0.45,0.45 0 0 0 0.45,0.45 h 27.08 a 0.45,0.45 0 0 0 0.45,-0.45 v -26.12"
       id="path255" />
    <path
       stroke="#8080ff"
       vector-effect="non-scaling-stroke"
       d="m 284.98,272.02 a 0.31,0.31 0 0 0 -0.31,0.32 l 0.24,13.33 a 0.31,0.31 0 0 0 0.31,0.3 h 28.47 a 0.31,0.31 0 0 0 0.31,-0.31 l 0.01,-13.33 a 0.31,0.31 0 0 0 -0.31,-0.31 h -28.72"
       id="path257" />
    <path
       stroke="#8080ff"
       vector-effect="non-scaling-stroke"
       d="m 313.99,288.37 a 0.35,0.35 0 0 0 -0.35,-0.35 h -28.32 a 0.35,0.35 0 0 0 -0.35,0.35 v 2.26 a 0.35,0.35 0 0 0 0.35,0.35 h 28.32 a 0.35,0.35 0 0 0 0.35,-0.35 v -2.26"
       id="path259" />
    <path
       stroke="#8080ff"
       vector-effect="non-scaling-stroke"
       d="m 314.01,293.38 a 0.36,0.36 0 0 0 -0.36,-0.36 h -28.52 a 0.36,0.36 0 0 0 -0.36,0.36 v 13.24 a 0.36,0.36 0 0 0 0.36,0.36 h 28.52 a 0.36,0.36 0 0 0 0.36,-0.36 v -13.24"
       id="path261" />
  </g>
  <path
     fill="#008000"
     d="m 1.3156105,181.93 a 1.52,1.54 63.3 0 0 0.31,-0.92 q -0.01,-87.67 -0.01,-175.67 c 0,-1.24 -0.63999996,-2.67 -0.42,-3.77 q 0.11,-0.57 0.69,-0.57 H 221.30561 q 0.61,0 0.79,0.59 0.23,0.76 -0.19,1.5 -0.26,0.46 -0.26,0.99 l 0.03,176.68 a 2.29,2.29 0 0 0 0.25,1.04 q 0.48,0.97 0.05,1.72 -0.3,0.51 -0.88,0.51 L 2.1556105,184.04 q -0.47,0 -0.78,-0.36 -0.71999996,-0.83 -0.06,-1.75 z m 4.47,-178.89 a 0.32,0.32 0 0 0 -0.21,0.57 l 7.7200005,6.32 a 0.32,0.32 0 0 0 0.2,0.07 l 196.299999,0.01 a 0.32,0.32 0 0 0 0.21,-0.07 l 7.63,-6.33 a 0.32,0.32 0 0 0 -0.21,-0.57 z m -2.12,176.46 a 0.31,0.31 0 0 0 0.51,0.24 l 7.3000005,-6.06 a 0.31,0.31 0 0 0 0.11,-0.24 V 11.4 a 0.31,0.31 0 0 0 -0.11,-0.24 L 4.1756105,5.08 a 0.31,0.31 0 0 0 -0.51,0.24 z M 219.62561,5.5 a 0.37,0.37 0 0 0 -0.6,-0.29 l -7.23,5.92 a 0.37,0.37 0 0 0 -0.14,0.29 v 162.05 a 0.37,0.37 0 0 0 0.14,0.29 l 7.22,5.89 a 0.37,0.37 0 0 0 0.6,-0.29 z M 53.685611,14.64 q -0.05,1.39 0.5,2.99 0.49,1.42 0.49,3.41 -0.03,29.36 -0.02,58.73 0,2.72 -0.1,5.45 -0.33,9.29 -0.03,30.35 0.01,0.52 -0.48,0.71 -0.81,0.32 -1.73,-0.08 a 1.97,1.9 56.1 0 0 -0.79,-0.17 l -36.15,0.02 q -1.72,0 -1.72,1.73 l 0.01,55 a 0.23,0.23 0 0 0 0.23,0.23 l 195.109999,0.01 a 0.62,0.62 0 0 0 0.62,-0.62 V 12.78 q 0,-0.73 -0.73,-0.73 L 14.135611,12.03 q -0.5,0 -0.49,0.49 v 0.88 q 0,0.62 0.62,0.62 l 38.82,-0.01 q 0.63,0 0.6,0.63 z m -38.65,1.4 a 0.4,0.4 0 0 0 -0.35,0.59 l 1.14,2.17 a 0.4,0.4 0 0 0 0.35,0.21 l 34.88,-0.01 a 0.4,0.4 0 0 0 0.4,-0.41 l -0.06,-2.16 a 0.4,0.4 0 0 0 -0.4,-0.39 z m 36.34,5.4 a 0.4,0.4 0 0 0 -0.4,-0.4 h -34.68 a 0.4,0.4 0 0 0 -0.4,0.4 v 25.1 a 0.4,0.4 0 0 0 0.4,0.4 h 34.68 a 0.4,0.4 0 0 0 0.4,-0.4 z m 0,28.05 a 0.46,0.46 0 0 0 -0.46,-0.46 h -34.6 a 0.46,0.46 0 0 0 -0.46,0.46 v 0.04 a 0.46,0.46 0 0 0 0.46,0.46 h 34.6 a 0.46,0.46 0 0 0 0.46,-0.46 z m -35.12,2.61 a 0.41,0.41 0 0 0 -0.41,0.41 l -0.2,26.02 a 0.41,0.41 0 0 0 0.41,0.41 l 34.74,0.01 a 0.41,0.41 0 0 0 0.41,-0.41 l 0.14,-26.03 a 0.41,0.41 0 0 0 -0.41,-0.41 z m 34.9,29.39 a 0.46,0.46 0 0 0 -0.46,-0.46 h -34.52 a 0.46,0.46 0 0 0 -0.46,0.46 v 0.04 a 0.46,0.46 0 0 0 0.46,0.46 h 34.52 a 0.46,0.46 0 0 0 0.46,-0.46 z m 0.0236,3.0311 a 0.39,0.39 0 0 0 -0.3893,-0.3907 l -34.7799,-0.0607 a 0.39,0.39 0 0 0 -0.3907,0.3893 l -0.0473,27.1199 a 0.39,0.39 0 0 0 0.3893,0.3907 l 34.7799,0.0607 a 0.39,0.39 0 0 0 0.3907,-0.3893 z M 217.70561,182.01 a 0.32,0.32 0 0 0 0.2,-0.57 l -7.67,-6.34 a 0.32,0.32 0 0 0 -0.21,-0.07 l -196.779999,0.01 a 0.32,0.32 0 0 0 -0.2,0.07 l -7.6700005,6.33 a 0.32,0.32 0 0 0 0.2,0.57 z"
     id="path267" />
  <path
     fill="#ffffff"
     d="M 5.7856105,3.04 H 217.42561 a 0.32,0.32 0 0 1 0.21,0.57 l -7.63,6.33 a 0.32,0.32 0 0 1 -0.21,0.07 L 13.495611,10 a 0.32,0.32 0 0 1 -0.2,-0.07 L 5.5756105,3.61 a 0.32,0.32 0 0 1 0.21,-0.57 z"
     id="path269" />
  <path
     fill="#ffffff"
     d="M 3.6656105,179.5 V 5.32 a 0.31,0.31 0 0 1 0.51,-0.24 l 7.3000005,6.08 a 0.31,0.31 0 0 1 0.11,0.24 v 162.04 a 0.31,0.31 0 0 1 -0.11,0.24 l -7.3000005,6.06 a 0.31,0.31 0 0 1 -0.51,-0.24 z"
     id="path271" />
  <path
     fill="#ffffff"
     d="m 219.62561,5.5 -0.01,173.86 a 0.37,0.37 0 0 1 -0.6,0.29 l -7.22,-5.89 a 0.37,0.37 0 0 1 -0.14,-0.29 V 11.42 a 0.37,0.37 0 0 1 0.14,-0.29 l 7.23,-5.92 a 0.37,0.37 0 0 1 0.6,0.29 z"
     id="path273" />
  <path
     fill="#ffffff"
     d="m 53.085611,14.01 -38.82,0.01 q -0.62,0 -0.62,-0.62 v -0.88 q -0.01,-0.49 0.49,-0.49 l 194.759999,0.02 q 0.73,0 0.73,0.73 V 172.4 a 0.62,0.62 0 0 1 -0.62,0.62 L 13.895611,173.01 a 0.23,0.23 0 0 1 -0.23,-0.23 l -0.01,-55 q 0,-1.73 1.72,-1.73 l 36.15,-0.02 a 1.97,1.9 56.1 0 1 0.79,0.17 q 0.92,0.4 1.73,0.08 0.49,-0.19 0.48,-0.71 -0.3,-21.06 0.03,-30.35 0.1,-2.73 0.1,-5.45 -0.01,-29.37 0.02,-58.73 0,-1.99 -0.49,-3.41 -0.55,-1.6 -0.5,-2.99 0.03,-0.63 -0.6,-0.63 z m 80.319999,35.24 33.82,-0.14 a 0.43,0.43 0 0 0 0.43,-0.43 l 0.02,-31.16 q 0,-0.66 -0.65,-0.55 -1.78,0.3 -3.46,-0.38 -1.55,-0.61 -3.22,-0.57 -16.23,0.37 -32.28,0.21 -0.6,-0.01 -1.19,-0.16 c -1.54,-0.39 -3.12,0.24 -4.73,0.26 q -17.33,0.31 -33.279999,0.1 -0.42,0 -0.41,0.41 0.29,14.4 0.13,27.71 -0.01,1.22 -0.15,2.45 c -0.23,1.98 0.17,4.1 0.17,6.11 0.02,7.99 0.2,15.9 -0.07,23.73 q -0.08,2.42 -0.02,5.04 0.34,13.35 -0.09,26.21 -0.02,0.51 0.49,0.51 19.999999,-0.06 36.369999,-0.1 3.07,-0.01 6.8,-0.19 a 0.59,0.59 0 0 0 0.57,-0.59 V 50 q 0,-0.74 0.75,-0.75 z M 60.625611,163.64 a 0.4,0.4 0 0 0 0.4,0.4 h 33.67 a 0.4,0.4 0 0 0 0.4,-0.4 l 0.03,-38.24 a 0.4,0.4 0 0 0 -0.4,-0.4 h -33.69 a 0.4,0.4 0 0 0 -0.4,0.4 z"
     id="path275" />
  <path
     fill="#ffffff"
     d="m 15.035611,16.04 h 35.96 a 0.4,0.4 0 0 1 0.4,0.39 l 0.06,2.16 a 0.4,0.4 0 0 1 -0.4,0.41 l -34.88,0.01 a 0.4,0.4 0 0 1 -0.35,-0.21 l -1.14,-2.17 a 0.4,0.4 0 0 1 0.35,-0.59 z"
     id="path277" />
  <path
     fill="#ff0000"
     d="m 132.65561,50 v 57.72 a 0.59,0.59 0 0 1 -0.57,0.59 q -3.73,0.18 -6.8,0.19 -16.37,0.04 -36.369999,0.1 -0.51,0 -0.49,-0.51 0.43,-12.86 0.09,-26.21 -0.06,-2.62 0.02,-5.04 c 0.27,-7.83 0.09,-15.74 0.07,-23.73 0,-2.01 -0.4,-4.13 -0.17,-6.11 q 0.14,-1.23 0.15,-2.45 0.16,-13.31 -0.13,-27.71 -0.01,-0.41 0.41,-0.41 15.949999,0.21 33.279999,-0.1 c 1.61,-0.02 3.19,-0.65 4.73,-0.26 q 0.59,0.15 1.19,0.16 16.05,0.16 32.28,-0.21 1.67,-0.04 3.22,0.57 1.68,0.68 3.46,0.38 0.65,-0.11 0.65,0.55 l -0.02,31.16 a 0.43,0.43 0 0 1 -0.43,0.43 l -33.82,0.14 q -0.75,0.01 -0.75,0.75 z M 94.625611,20.05 a 0.43,0.43 0 0 0 -0.35,-0.42 l -3.14,-0.58 a 0.43,0.43 0 0 0 -0.51,0.43 l 0.17,26.37 a 0.43,0.43 0 0 0 0.43,0.43 l 2.95,-0.03 a 0.43,0.43 0 0 0 0.43,-0.43 z m 65.954699,-0.0887 a 0.34,0.34 0 0 0 -0.3412,-0.3388 l -27.2398,0.0951 a 0.34,0.34 0 0 0 -0.3389,0.3412 l 0.0905,25.9199 a 0.34,0.34 0 0 0 0.3412,0.3388 l 27.2398,-0.0951 a 0.34,0.34 0 0 0 0.3389,-0.3412 z m 5.0453,0.0287 a 0.43,0.43 0 0 0 -0.43,-0.43 h -2.1 a 0.43,0.43 0 0 0 -0.43,0.43 v 26.26 a 0.43,0.43 0 0 0 0.43,0.43 h 2.1 a 0.43,0.43 0 0 0 0.43,-0.43 z m -41.0851,0.1213 a 0.26,0.26 0 0 0 -0.2609,-0.2591 l -27.419799,0.0957 a 0.26,0.26 0 0 0 -0.2591,0.2609 l 0.09,25.7799 a 0.26,0.26 0 0 0 0.2609,0.2591 l 27.419799,-0.0957 a 0.26,0.26 0 0 0 0.2591,-0.2609 z m 6.0227,0.0854 a 0.35,0.35 0 0 0 -0.3506,-0.3494 l -3.16,0.005 a 0.35,0.35 0 0 0 -0.3494,0.3506 l 0.0448,25.6599 a 0.35,0.35 0 0 0 0.3506,0.3494 l 3.16,-0.006 a 0.35,0.35 0 0 0 0.3494,-0.3506 z m -36.000399,29.25 a 0.51,0.51 0 0 0 -0.5109,-0.5092 l -2.84,0.005 a 0.51,0.51 0 0 0 -0.5091,0.5109 l 0.0456,26.1799 a 0.51,0.51 0 0 0 0.5109,0.5092 l 2.84,-0.005 a 0.51,0.51 0 0 0 0.5091,-0.5109 z M 130.58561,49.9 a 0.45,0.45 0 0 0 -0.45,-0.45 h -2.94 a 0.45,0.45 0 0 0 -0.45,0.45 v 25.82 a 0.45,0.45 0 0 0 0.45,0.45 h 2.94 a 0.45,0.45 0 0 0 0.45,-0.45 z m -5.982,0.2456 a 0.64,0.64 0 0 0 -0.6412,-0.6389 l -26.699899,0.0466 a 0.64,0.64 0 0 0 -0.6389,0.6411 l 0.044,25.24 a 0.64,0.64 0 0 0 0.6412,0.6389 l 26.699899,-0.0466 a 0.64,0.64 0 0 0 0.6389,-0.6411 z M 94.625611,79.23 a 0.4,0.4 0 0 0 -0.4,-0.4 h -3.16 a 0.4,0.4 0 0 0 -0.4,0.4 v 26.46 a 0.4,0.4 0 0 0 0.4,0.4 h 3.16 a 0.4,0.4 0 0 0 0.4,-0.4 z m 35.989999,0.02 a 0.39,0.39 0 0 0 -0.39,-0.39 h -3.14 a 0.39,0.39 0 0 0 -0.39,0.39 v 26.38 a 0.39,0.39 0 0 0 0.39,0.39 h 3.14 a 0.39,0.39 0 0 0 0.39,-0.39 z m -6,0.21 a 0.45,0.45 0 0 0 -0.45,-0.45 H 97.085611 a 0.45,0.45 0 0 0 -0.45,0.45 v 26.12 a 0.45,0.45 0 0 0 0.45,0.45 h 27.079999 a 0.45,0.45 0 0 0 0.45,-0.45 z"
     id="path279" />
  <path
     fill="#ffffff"
     d="m 94.625611,20.05 -0.02,25.77 a 0.43,0.43 0 0 1 -0.43,0.43 l -2.95,0.03 a 0.43,0.43 0 0 1 -0.43,-0.43 l -0.17,-26.37 a 0.43,0.43 0 0 1 0.51,-0.43 l 3.14,0.58 a 0.43,0.43 0 0 1 0.35,0.42 z"
     id="path281" />
  <rect
     fill="#ffffff"
     x="132.58963"
     y="20.181755"
     transform="rotate(-0.2)"
     width="27.92"
     height="26.6"
     rx="0.34"
     id="rect283" />
  <rect
     fill="#ffffff"
     x="162.6656"
     y="19.559994"
     width="2.96"
     height="27.120001"
     rx="0.43000001"
     id="rect285" />
  <rect
     fill="#ffffff"
     x="96.529572"
     y="20.285912"
     transform="rotate(-0.2)"
     width="27.940001"
     height="26.299999"
     rx="0.25999999"
     id="rect287" />
  <rect
     fill="#ffffff"
     x="126.66776"
     y="20.074495"
     transform="rotate(-0.1)"
     width="3.8599999"
     height="26.360001"
     rx="0.34999999"
     id="rect289" />
  <rect
     fill="#ffffff"
     x="15.895605"
     y="21.040005"
     width="35.48"
     height="25.9"
     rx="0.40000001"
     id="rect291" />
  <rect
     fill="#ffffff"
     x="90.61631"
     y="49.101612"
     transform="rotate(-0.1)"
     width="3.8599999"
     height="27.200001"
     rx="0.50999999"
     id="rect293" />
  <rect
     fill="#ffffff"
     x="15.855612"
     y="49.029995"
     width="35.52"
     height="0.95999998"
     rx="0.46000001"
     id="rect295" />
  <rect
     fill="#ffffff"
     x="126.7456"
     y="49.449993"
     width="3.8399999"
     height="26.719999"
     rx="0.44999999"
     id="rect297" />
  <rect
     fill="#ffffff"
     x="96.535835"
     y="49.722996"
     transform="rotate(-0.1)"
     width="27.98"
     height="26.52"
     rx="0.63999999"
     id="rect299" />
  <path
     fill="#ffffff"
     d="m 16.255611,52.1 h 34.68 a 0.41,0.41 0 0 1 0.41,0.41 l -0.14,26.03 a 0.41,0.41 0 0 1 -0.41,0.41 l -34.74,-0.01 a 0.41,0.41 0 0 1 -0.41,-0.41 l 0.2,-26.02 a 0.41,0.41 0 0 1 0.41,-0.41 z"
     id="path301" />
  <rect
     fill="#ffffff"
     x="90.665611"
     y="78.829994"
     width="3.96"
     height="27.26"
     rx="0.40000001"
     id="rect303" />
  <rect
     fill="#ffffff"
     x="126.69561"
     y="78.859993"
     width="3.9200001"
     height="27.16"
     rx="0.38999999"
     id="rect305" />
  <rect
     fill="#ffffff"
     x="96.635612"
     y="79.010002"
     width="27.98"
     height="27.02"
     rx="0.44999999"
     id="rect307" />
  <rect
     fill="#ffffff"
     x="15.715612"
     y="81.029991"
     width="35.439999"
     height="0.95999998"
     rx="0.46000001"
     id="rect309" />
  <rect
     fill="#ffffff"
     x="15.766699"
     y="84.041603"
     transform="rotate(0.1)"
     width="35.560001"
     height="27.9"
     rx="0.38999999"
     id="rect311" />
  <path
     fill="#0000ff"
     d="m 60.625611,163.64 0.01,-38.24 a 0.4,0.4 0 0 1 0.4,-0.4 h 33.69 a 0.4,0.4 0 0 1 0.4,0.4 l -0.03,38.24 a 0.4,0.4 0 0 1 -0.4,0.4 h -33.67 a 0.4,0.4 0 0 1 -0.4,-0.4 z m 2.99,-36.6 a 0.31,0.31 0 0 0 -0.31,0.32 l 0.24,13.33 a 0.31,0.31 0 0 0 0.31,0.3 h 28.47 a 0.31,0.31 0 0 0 0.31,-0.31 l 0.01,-13.33 a 0.31,0.31 0 0 0 -0.31,-0.31 z m 29.01,16.35 a 0.35,0.35 0 0 0 -0.35,-0.35 h -28.32 a 0.35,0.35 0 0 0 -0.35,0.35 v 2.26 a 0.35,0.35 0 0 0 0.35,0.35 h 28.32 a 0.35,0.35 0 0 0 0.35,-0.35 z m 0.02,5.01 a 0.36,0.36 0 0 0 -0.36,-0.36 h -28.52 a 0.36,0.36 0 0 0 -0.36,0.36 v 13.24 a 0.36,0.36 0 0 0 0.36,0.36 h 28.52 a 0.36,0.36 0 0 0 0.36,-0.36 z"
     id="path313" />
  <path
     fill="#ffffff"
     d="m 63.615611,127.04 h 28.72 a 0.31,0.31 0 0 1 0.31,0.31 l -0.01,13.33 a 0.31,0.31 0 0 1 -0.31,0.31 h -28.47 a 0.31,0.31 0 0 1 -0.31,-0.3 l -0.24,-13.33 a 0.31,0.31 0 0 1 0.31,-0.32 z"
     id="path315" />
  <rect
     fill="#ffffff"
     x="63.60561"
     y="143.03999"
     width="29.02"
     height="2.96"
     rx="0.34999999"
     id="rect317" />
  <rect
     fill="#ffffff"
     x="63.405598"
     y="148.03999"
     width="29.24"
     height="13.96"
     rx="0.36000001"
     id="rect319" />
  <path
     fill="#ffffff"
     d="M 217.70561,182.01 H 5.5756105 a 0.32,0.32 0 0 1 -0.2,-0.57 l 7.6700005,-6.33 a 0.32,0.32 0 0 1 0.2,-0.07 l 196.779999,-0.01 a 0.32,0.32 0 0 1 0.21,0.07 l 7.67,6.34 a 0.32,0.32 0 0 1 -0.2,0.57 z"
     id="path321" />
</svg>
