<?xml version="1.0" encoding="UTF-8" standalone="no"?>
<!DOCTYPE svg PUBLIC "-//W3C//DTD SVG 1.1//EN" "http://www.w3.org/Graphics/SVG/1.1/DTD/svg11.dtd">
<svg xmlns="http://www.w3.org/2000/svg" version="1.1" viewBox="0.00 0.00 239.00 206.00">
<g stroke-width="2.00" fill="none" stroke-linecap="butt">
<path stroke="#80bf80" vector-effect="non-scaling-stroke" d="
  M 8.65 192.96
  Q 8.02 193.86 8.76 194.68
  A 1.01 1.00 69.1 0 0 9.51 195.02
  L 228.47 195.02
  A 1.09 1.09 0.0 0 0 229.50 193.58
  Q 229.07 192.28 229.07 190.88
  Q 228.95 103.35 229.07 14.85
  Q 229.07 14.43 229.28 14.06
  Q 229.76 13.26 229.41 12.42
  Q 229.14 11.78 228.45 11.82
  Q 227.21 11.91 226.00 11.91
  Q 108.54 12.14 11.75 11.84
  Q 10.54 11.84 9.34 11.85
  Q 8.80 11.85 8.62 12.36
  C 8.22 13.53 8.94 14.29 8.94 15.51
  Q 9.01 102.80 8.99 191.88
  A 1.91 1.88 -28.1 0 1 8.65 192.96"
/>
<path stroke="#80bf80" vector-effect="non-scaling-stroke" d="
  M 13.14 14.02
  A 0.31 0.31 0.0 0 0 12.94 14.57
  L 20.67 20.92
  A 0.31 0.31 0.0 0 0 20.87 20.99
  L 217.14 20.98
  A 0.31 0.31 0.0 0 0 217.34 20.91
  L 225.01 14.57
  A 0.31 0.31 0.0 0 0 224.82 14.02
  L 13.14 14.02"
/>
<path stroke="#80bf80" vector-effect="non-scaling-stroke" d="
  M 11.02 190.43
  A 0.33 0.33 0.0 0 0 11.56 190.68
  L 18.87 184.65
  A 0.33 0.33 0.0 0 0 18.99 184.39
  L 18.98 22.40
  A 0.33 0.33 0.0 0 0 18.86 22.14
  L 11.56 16.11
  A 0.33 0.33 0.0 0 0 11.02 16.36
  L 11.02 190.43"
/>
<path stroke="#80bf80" vector-effect="non-scaling-stroke" d="
  M 226.98 16.48
  A 0.37 0.37 0.0 0 0 226.38 16.20
  L 219.17 22.11
  A 0.37 0.37 0.0 0 0 219.03 22.40
  L 219.02 184.42
  A 0.37 0.37 0.0 0 0 219.15 184.70
  L 226.37 190.64
  A 0.37 0.37 0.0 0 0 226.98 190.36
  L 226.98 16.48"
/>
<path stroke="#80bf80" vector-effect="non-scaling-stroke" d="
  M 101.26 26.01
  L 101.18 54.98"
/>
<path stroke="#803f00" vector-effect="non-scaling-stroke" d="
  M 101.18 54.98
  Q 101.74 55.89 101.71 57.03"
/>
<path stroke="#80bf80" vector-effect="non-scaling-stroke" d="
  M 101.71 57.03
  Q 101.09 57.05 101.08 58.00
  Q 101.02 64.60 101.09 84.94
  C 101.09 86.13 101.61 87.13 101.34 88.31
  Q 101.09 89.46 101.08 90.75
  Q 100.99 104.95 101.16 119.46
  Q 101.16 119.98 100.73 120.25
  Q 99.75 120.86 98.78 120.31
  Q 98.35 120.06 97.85 120.06
  Q 80.95 120.06 63.75 120.10
  Q 62.04 120.10 60.41 120.52
  A 0.44 0.44 0.0 0 1 59.86 120.09
  L 59.91 57.07"
/>
<path stroke="#003f80" vector-effect="non-scaling-stroke" d="
  M 59.91 57.07
  Q 59.42 56.16 59.30 54.96"
/>
<path stroke="#80bf80" vector-effect="non-scaling-stroke" d="
  M 59.30 54.96
  Q 59.38 55.10 59.60 55.02
  Q 59.88 54.92 59.88 54.63
  L 59.89 26.02"
/>
<path stroke="#003f80" vector-effect="non-scaling-stroke" d="
  M 59.89 26.02
  Q 60.18 24.36 59.64 23.53
  Q 59.20 22.86 58.43 22.85
  Q 41.47 22.82 24.12 22.88
  Q 23.49 22.89 22.94 22.58
  Q 22.14 22.13 21.42 22.77
  Q 20.99 23.15 20.99 23.72
  L 21.00 57.18"
/>
<path stroke="#80bf80" vector-effect="non-scaling-stroke" d="
  M 21.00 57.18
  L 21.05 183.75
  Q 21.05 184.00 21.29 184.00
  L 216.49 184.00
  A 0.51 0.50 -90.0 0 0 216.99 183.49
  L 216.97 88.22"
/>
<path stroke="#803f00" vector-effect="non-scaling-stroke" d="
  M 216.97 88.22
  L 217.08 23.66
  A 1.21 1.21 0.0 0 0 215.48 22.51
  Q 214.25 22.93 213.10 22.94
  Q 196.16 23.06 179.58 22.82
  C 178.34 22.80 177.44 22.06 176.27 22.46
  Q 174.99 22.90 173.65 22.91
  Q 156.77 23.04 141.94 22.92
  Q 140.20 22.91 138.71 22.35
  A 1.53 1.50 45.6 0 0 137.75 22.33
  C 136.88 22.61 136.13 22.94 135.21 22.95
  Q 118.75 23.04 102.11 22.90
  Q 101.17 22.89 101.20 23.83
  L 101.26 26.01"
/>
<path stroke="#ff8080" vector-effect="non-scaling-stroke" d="
  M 216.97 88.22
  C 215.63 88.61 214.70 89.04 213.30 89.04
  Q 192.79 88.99 175.47 89.05
  A 0.54 0.53 -90.0 0 1 174.94 88.51
  L 175.01 57.59
  A 0.54 0.53 0.0 0 0 174.47 57.06
  L 101.71 57.03"
/>
<path stroke="#ff8080" vector-effect="non-scaling-stroke" d="
  M 101.18 54.98
  L 136.38 54.96
  A 0.44 0.44 0.0 0 0 136.82 54.52
  L 136.82 26.29
  A 0.27 0.27 0.0 0 0 136.55 26.02
  L 101.26 26.01"
/>
<path stroke="#8080ff" vector-effect="non-scaling-stroke" d="
  M 59.89 26.02
  L 25.53 26.05
  Q 25.03 26.05 25.03 26.55
  L 25.02 54.31
  Q 25.02 54.97 25.68 54.97
  L 59.30 54.96"
/>
<path stroke="#8080ff" vector-effect="non-scaling-stroke" d="
  M 59.91 57.07
  L 21.00 57.18"
/>
<path stroke="#80bf80" vector-effect="non-scaling-stroke" d="
  M 98.82 26.45
  A 0.43 0.43 0.0 0 0 98.39 26.02
  L 63.49 26.02
  A 0.43 0.43 0.0 0 0 63.06 26.45
  L 63.06 54.37
  A 0.43 0.43 0.0 0 0 63.49 54.80
  L 98.39 54.80
  A 0.43 0.43 0.0 0 0 98.82 54.37
  L 98.82 26.45"
/>
<path stroke="#80bf80" vector-effect="non-scaling-stroke" d="
  M 98.94 57.63
  A 0.44 0.44 0.0 0 0 98.50 57.19
  L 63.46 57.19
  A 0.44 0.44 0.0 0 0 63.02 57.63
  L 63.02 85.49
  A 0.44 0.44 0.0 0 0 63.46 85.93
  L 98.50 85.93
  A 0.44 0.44 0.0 0 0 98.94 85.49
  L 98.94 57.63"
/>
<path stroke="#80bf80" vector-effect="non-scaling-stroke" d="
  M 98.94 89.54
  A 0.46 0.46 0.0 0 0 98.48 89.08
  L 63.48 89.08
  A 0.46 0.46 0.0 0 0 63.02 89.54
  L 63.02 117.48
  A 0.46 0.46 0.0 0 0 63.48 117.94
  L 98.48 117.94
  A 0.46 0.46 0.0 0 0 98.94 117.48
  L 98.94 89.54"
/>
<path stroke="#80bf80" vector-effect="non-scaling-stroke" d="
  M 225.07 192.98
  A 0.32 0.32 0.0 0 0 225.27 192.41
  L 217.59 186.08
  A 0.32 0.32 0.0 0 0 217.39 186.01
  L 20.63 186.01
  A 0.32 0.32 0.0 0 0 20.43 186.08
  L 12.74 192.42
  A 0.32 0.32 0.0 0 0 12.94 192.99
  L 225.07 192.98"
/>
<path stroke="#ff8080" vector-effect="non-scaling-stroke" d="
  M 174.95 26.56
  A 0.54 0.54 0.0 0 0 174.41 26.02
  L 139.73 26.02
  A 0.54 0.54 0.0 0 0 139.19 26.56
  L 139.19 54.40
  A 0.54 0.54 0.0 0 0 139.73 54.94
  L 174.41 54.94
  A 0.54 0.54 0.0 0 0 174.95 54.40
  L 174.95 26.56"
/>
<path stroke="#ff8080" vector-effect="non-scaling-stroke" d="
  M 212.98 26.44
  A 0.42 0.42 0.0 0 0 212.56 26.02
  L 178.48 26.02
  A 0.42 0.42 0.0 0 0 178.06 26.44
  L 178.06 54.40
  A 0.42 0.42 0.0 0 0 178.48 54.82
  L 212.56 54.82
  A 0.42 0.42 0.0 0 0 212.98 54.40
  L 212.98 26.44"
/>
<path stroke="#ff8080" vector-effect="non-scaling-stroke" d="
  M 212.98 57.67
  A 0.48 0.48 0.0 0 0 212.50 57.19
  L 178.50 57.19
  A 0.48 0.48 0.0 0 0 178.02 57.67
  L 178.02 85.51
  A 0.48 0.48 0.0 0 0 178.50 85.99
  L 212.50 85.99
  A 0.48 0.48 0.0 0 0 212.98 85.51
  L 212.98 57.67"
/>
</g>
<path fill="#ffffff" d="
  M 0.00 0.00
  L 239.00 0.00
  L 239.00 206.00
  L 0.00 206.00
  L 0.00 0.00
  Z
  M 8.65 192.96
  Q 8.02 193.86 8.76 194.68
  A 1.01 1.00 69.1 0 0 9.51 195.02
  L 228.47 195.02
  A 1.09 1.09 0.0 0 0 229.50 193.58
  Q 229.07 192.28 229.07 190.88
  Q 228.95 103.35 229.07 14.85
  Q 229.07 14.43 229.28 14.06
  Q 229.76 13.26 229.41 12.42
  Q 229.14 11.78 228.45 11.82
  Q 227.21 11.91 226.00 11.91
  Q 108.54 12.14 11.75 11.84
  Q 10.54 11.84 9.34 11.85
  Q 8.80 11.85 8.62 12.36
  C 8.22 13.53 8.94 14.29 8.94 15.51
  Q 9.01 102.80 8.99 191.88
  A 1.91 1.88 -28.1 0 1 8.65 192.96
  Z"
/>
<path fill="#007e00" d="
  M 8.65 192.96
  A 1.91 1.88 -28.1 0 0 8.99 191.88
  Q 9.01 102.80 8.94 15.51
  C 8.94 14.29 8.22 13.53 8.62 12.36
  Q 8.80 11.85 9.34 11.85
  Q 10.54 11.84 11.75 11.84
  Q 108.54 12.14 226.00 11.91
  Q 227.21 11.91 228.45 11.82
  Q 229.14 11.78 229.41 12.42
  Q 229.76 13.26 229.28 14.06
  Q 229.07 14.43 229.07 14.85
  Q 228.95 103.35 229.07 190.88
  Q 229.07 192.28 229.50 193.58
  A 1.09 1.09 0.0 0 1 228.47 195.02
  L 9.51 195.02
  A 1.01 1.00 69.1 0 1 8.76 194.68
  Q 8.02 193.86 8.65 192.96
  Z
  M 13.14 14.02
  A 0.31 0.31 0.0 0 0 12.94 14.57
  L 20.67 20.92
  A 0.31 0.31 0.0 0 0 20.87 20.99
  L 217.14 20.98
  A 0.31 0.31 0.0 0 0 217.34 20.91
  L 225.01 14.57
  A 0.31 0.31 0.0 0 0 224.82 14.02
  L 13.14 14.02
  Z
  M 11.02 190.43
  A 0.33 0.33 0.0 0 0 11.56 190.68
  L 18.87 184.65
  A 0.33 0.33 0.0 0 0 18.99 184.39
  L 18.98 22.40
  A 0.33 0.33 0.0 0 0 18.86 22.14
  L 11.56 16.11
  A 0.33 0.33 0.0 0 0 11.02 16.36
  L 11.02 190.43
  Z
  M 226.98 16.48
  A 0.37 0.37 0.0 0 0 226.38 16.20
  L 219.17 22.11
  A 0.37 0.37 0.0 0 0 219.03 22.40
  L 219.02 184.42
  A 0.37 0.37 0.0 0 0 219.15 184.70
  L 226.37 190.64
  A 0.37 0.37 0.0 0 0 226.98 190.36
  L 226.98 16.48
  Z
  M 101.26 26.01
  L 101.18 54.98
  Q 101.74 55.89 101.71 57.03
  Q 101.09 57.05 101.08 58.00
  Q 101.02 64.60 101.09 84.94
  C 101.09 86.13 101.61 87.13 101.34 88.31
  Q 101.09 89.46 101.08 90.75
  Q 100.99 104.95 101.16 119.46
  Q 101.16 119.98 100.73 120.25
  Q 99.75 120.86 98.78 120.31
  Q 98.35 120.06 97.85 120.06
  Q 80.95 120.06 63.75 120.10
  Q 62.04 120.10 60.41 120.52
  A 0.44 0.44 0.0 0 1 59.86 120.09
  L 59.91 57.07
  Q 59.42 56.16 59.30 54.96
  Q 59.38 55.10 59.60 55.02
  Q 59.88 54.92 59.88 54.63
  L 59.89 26.02
  Q 60.18 24.36 59.64 23.53
  Q 59.20 22.86 58.43 22.85
  Q 41.47 22.82 24.12 22.88
  Q 23.49 22.89 22.94 22.58
  Q 22.14 22.13 21.42 22.77
  Q 20.99 23.15 20.99 23.72
  L 21.00 57.18
  L 21.05 183.75
  Q 21.05 184.00 21.29 184.00
  L 216.49 184.00
  A 0.51 0.50 -90.0 0 0 216.99 183.49
  L 216.97 88.22
  L 217.08 23.66
  A 1.21 1.21 0.0 0 0 215.48 22.51
  Q 214.25 22.93 213.10 22.94
  Q 196.16 23.06 179.58 22.82
  C 178.34 22.80 177.44 22.06 176.27 22.46
  Q 174.99 22.90 173.65 22.91
  Q 156.77 23.04 141.94 22.92
  Q 140.20 22.91 138.71 22.35
  A 1.53 1.50 45.6 0 0 137.75 22.33
  C 136.88 22.61 136.13 22.94 135.21 22.95
  Q 118.75 23.04 102.11 22.90
  Q 101.17 22.89 101.20 23.83
  L 101.26 26.01
  Z
  M 98.82 26.45
  A 0.43 0.43 0.0 0 0 98.39 26.02
  L 63.49 26.02
  A 0.43 0.43 0.0 0 0 63.06 26.45
  L 63.06 54.37
  A 0.43 0.43 0.0 0 0 63.49 54.80
  L 98.39 54.80
  A 0.43 0.43 0.0 0 0 98.82 54.37
  L 98.82 26.45
  Z
  M 98.94 57.63
  A 0.44 0.44 0.0 0 0 98.50 57.19
  L 63.46 57.19
  A 0.44 0.44 0.0 0 0 63.02 57.63
  L 63.02 85.49
  A 0.44 0.44 0.0 0 0 63.46 85.93
  L 98.50 85.93
  A 0.44 0.44 0.0 0 0 98.94 85.49
  L 98.94 57.63
  Z
  M 98.94 89.54
  A 0.46 0.46 0.0 0 0 98.48 89.08
  L 63.48 89.08
  A 0.46 0.46 0.0 0 0 63.02 89.54
  L 63.02 117.48
  A 0.46 0.46 0.0 0 0 63.48 117.94
  L 98.48 117.94
  A 0.46 0.46 0.0 0 0 98.94 117.48
  L 98.94 89.54
  Z
  M 225.07 192.98
  A 0.32 0.32 0.0 0 0 225.27 192.41
  L 217.59 186.08
  A 0.32 0.32 0.0 0 0 217.39 186.01
  L 20.63 186.01
  A 0.32 0.32 0.0 0 0 20.43 186.08
  L 12.74 192.42
  A 0.32 0.32 0.0 0 0 12.94 192.99
  L 225.07 192.98
  Z"
/>
<path fill="#ffffff" d="
  M 13.14 14.02
  L 224.82 14.02
  A 0.31 0.31 0.0 0 1 225.01 14.57
  L 217.34 20.91
  A 0.31 0.31 0.0 0 1 217.14 20.98
  L 20.87 20.99
  A 0.31 0.31 0.0 0 1 20.67 20.92
  L 12.94 14.57
  A 0.31 0.31 0.0 0 1 13.14 14.02
  Z"
/>
<path fill="#ffffff" d="
  M 11.02 190.43
  L 11.02 16.36
  A 0.33 0.33 0.0 0 1 11.56 16.11
  L 18.86 22.14
  A 0.33 0.33 0.0 0 1 18.98 22.40
  L 18.99 184.39
  A 0.33 0.33 0.0 0 1 18.87 184.65
  L 11.56 190.68
  A 0.33 0.33 0.0 0 1 11.02 190.43
  Z"
/>
<path fill="#ffffff" d="
  M 226.98 16.48
  L 226.98 190.36
  A 0.37 0.37 0.0 0 1 226.37 190.64
  L 219.15 184.70
  A 0.37 0.37 0.0 0 1 219.02 184.42
  L 219.03 22.40
  A 0.37 0.37 0.0 0 1 219.17 22.11
  L 226.38 16.20
  A 0.37 0.37 0.0 0 1 226.98 16.48
  Z"
/>
<path fill="#ff0000" d="
  M 216.97 88.22
  C 215.63 88.61 214.70 89.04 213.30 89.04
  Q 192.79 88.99 175.47 89.05
  A 0.54 0.53 -90.0 0 1 174.94 88.51
  L 175.01 57.59
  A 0.54 0.53 0.0 0 0 174.47 57.06
  L 101.71 57.03
  Q 101.74 55.89 101.18 54.98
  L 136.38 54.96
  A 0.44 0.44 0.0 0 0 136.82 54.52
  L 136.82 26.29
  A 0.27 0.27 0.0 0 0 136.55 26.02
  L 101.26 26.01
  L 101.20 23.83
  Q 101.17 22.89 102.11 22.90
  Q 118.75 23.04 135.21 22.95
  C 136.13 22.94 136.88 22.61 137.75 22.33
  A 1.53 1.50 45.6 0 1 138.71 22.35
  Q 140.20 22.91 141.94 22.92
  Q 156.77 23.04 173.65 22.91
  Q 174.99 22.90 176.27 22.46
  C 177.44 22.06 178.34 22.80 179.58 22.82
  Q 196.16 23.06 213.10 22.94
  Q 214.25 22.93 215.48 22.51
  A 1.21 1.21 0.0 0 1 217.08 23.66
  L 216.97 88.22
  Z
  M 174.95 26.56
  A 0.54 0.54 0.0 0 0 174.41 26.02
  L 139.73 26.02
  A 0.54 0.54 0.0 0 0 139.19 26.56
  L 139.19 54.40
  A 0.54 0.54 0.0 0 0 139.73 54.94
  L 174.41 54.94
  A 0.54 0.54 0.0 0 0 174.95 54.40
  L 174.95 26.56
  Z
  M 212.98 26.44
  A 0.42 0.42 0.0 0 0 212.56 26.02
  L 178.48 26.02
  A 0.42 0.42 0.0 0 0 178.06 26.44
  L 178.06 54.40
  A 0.42 0.42 0.0 0 0 178.48 54.82
  L 212.56 54.82
  A 0.42 0.42 0.0 0 0 212.98 54.40
  L 212.98 26.44
  Z
  M 212.98 57.67
  A 0.48 0.48 0.0 0 0 212.50 57.19
  L 178.50 57.19
  A 0.48 0.48 0.0 0 0 178.02 57.67
  L 178.02 85.51
  A 0.48 0.48 0.0 0 0 178.50 85.99
  L 212.50 85.99
  A 0.48 0.48 0.0 0 0 212.98 85.51
  L 212.98 57.67
  Z"
/>
<path fill="#0000ff" d="
  M 59.89 26.02
  L 25.53 26.05
  Q 25.03 26.05 25.03 26.55
  L 25.02 54.31
  Q 25.02 54.97 25.68 54.97
  L 59.30 54.96
  Q 59.42 56.16 59.91 57.07
  L 21.00 57.18
  L 20.99 23.72
  Q 20.99 23.15 21.42 22.77
  Q 22.14 22.13 22.94 22.58
  Q 23.49 22.89 24.12 22.88
  Q 41.47 22.82 58.43 22.85
  Q 59.20 22.86 59.64 23.53
  Q 60.18 24.36 59.89 26.02
  Z"
/>
<path fill="#ffffff" d="
  M 59.89 26.02
  L 59.88 54.63
  Q 59.88 54.92 59.60 55.02
  Q 59.38 55.10 59.30 54.96
  L 25.68 54.97
  Q 25.02 54.97 25.02 54.31
  L 25.03 26.55
  Q 25.03 26.05 25.53 26.05
  L 59.89 26.02
  Z"
/>
<rect fill="#ffffff" x="63.06" y="26.02" width="35.76" height="28.78" rx="0.43"/>
<path fill="#ffffff" d="
  M 101.26 26.01
  L 136.55 26.02
  A 0.27 0.27 0.0 0 1 136.82 26.29
  L 136.82 54.52
  A 0.44 0.44 0.0 0 1 136.38 54.96
  L 101.18 54.98
  L 101.26 26.01
  Z"
/>
<rect fill="#ffffff" x="139.19" y="26.02" width="35.76" height="28.92" rx="0.54"/>
<rect fill="#ffffff" x="178.06" y="26.02" width="34.92" height="28.80" rx="0.42"/>
<path fill="#ffffff" d="
  M 21.00 57.18
  L 59.91 57.07
  L 59.86 120.09
  A 0.44 0.44 0.0 0 0 60.41 120.52
  Q 62.04 120.10 63.75 120.10
  Q 80.95 120.06 97.85 120.06
  Q 98.35 120.06 98.78 120.31
  Q 99.75 120.86 100.73 120.25
  Q 101.16 119.98 101.16 119.46
  Q 100.99 104.95 101.08 90.75
  Q 101.09 89.46 101.34 88.31
  C 101.61 87.13 101.09 86.13 101.09 84.94
  Q 101.02 64.60 101.08 58.00
  Q 101.09 57.05 101.71 57.03
  L 174.47 57.06
  A 0.54 0.53 -0.0 0 1 175.01 57.59
  L 174.94 88.51
  A 0.54 0.53 90.0 0 0 175.47 89.05
  Q 192.79 88.99 213.30 89.04
  C 214.70 89.04 215.63 88.61 216.97 88.22
  L 216.99 183.49
  A 0.51 0.50 -90.0 0 1 216.49 184.00
  L 21.29 184.00
  Q 21.05 184.00 21.05 183.75
  L 21.00 57.18
  Z"
/>
<rect fill="#ffffff" x="63.02" y="57.19" width="35.92" height="28.74" rx="0.44"/>
<rect fill="#ffffff" x="178.02" y="57.19" width="34.96" height="28.80" rx="0.48"/>
<rect fill="#ffffff" x="63.02" y="89.08" width="35.92" height="28.86" rx="0.46"/>
<path fill="#ffffff" d="
  M 225.07 192.98
  L 12.94 192.99
  A 0.32 0.32 0.0 0 1 12.74 192.42
  L 20.43 186.08
  A 0.32 0.32 0.0 0 1 20.63 186.01
  L 217.39 186.01
  A 0.32 0.32 0.0 0 1 217.59 186.08
  L 225.27 192.41
  A 0.32 0.32 0.0 0 1 225.07 192.98
  Z"
/>
</svg>
