<?xml version="1.0" encoding="UTF-8" standalone="no"?>
<!DOCTYPE svg PUBLIC "-//W3C//DTD SVG 1.1//EN" "http://www.w3.org/Graphics/SVG/1.1/DTD/svg11.dtd">
<svg xmlns="http://www.w3.org/2000/svg" version="1.1" viewBox="0.00 0.00 239.00 206.00">
<g stroke-width="2.00" fill="none" stroke-linecap="butt">
<path stroke="#80bf80" vector-effect="non-scaling-stroke" d="
  M 228.03 190.05
  L 228.02 12.99
  A 1.91 1.87 61.6 0 1 228.31 11.98
  Q 228.94 10.95 228.16 10.10
  Q 227.84 9.74 227.37 9.80
  Q 225.81 9.98 223.25 9.98
  Q 115.79 10.00 8.33 9.97
  Q 7.73 9.97 7.52 10.54
  Q 7.24 11.34 7.72 12.08
  A 1.55 1.55 0.0 0 1 7.98 12.94
  L 7.98 189.77
  Q 7.98 190.45 7.60 191.02
  Q 6.96 191.99 7.91 192.79
  Q 8.17 193.01 8.52 193.01
  L 227.35 193.02
  Q 228.06 193.02 228.42 192.40
  Q 228.86 191.62 228.30 190.87
  A 1.39 1.34 -64.3 0 1 228.03 190.05"
/>
<path stroke="#80bf80" vector-effect="non-scaling-stroke" d="
  M 12.15 12.02
  A 0.31 0.31 0.0 0 0 11.96 12.57
  L 19.65 18.92
  A 0.31 0.31 0.0 0 0 19.85 18.99
  L 216.15 18.99
  A 0.31 0.31 0.0 0 0 216.35 18.92
  L 224.03 12.57
  A 0.31 0.31 0.0 0 0 223.83 12.02
  L 12.15 12.02"
/>
<path stroke="#80bf80" vector-effect="non-scaling-stroke" d="
  M 10.02 188.43
  A 0.33 0.33 0.0 0 0 10.56 188.68
  L 17.87 182.65
  A 0.33 0.33 0.0 0 0 17.99 182.39
  L 17.98 20.40
  A 0.33 0.33 0.0 0 0 17.86 20.14
  L 10.56 14.12
  A 0.33 0.33 0.0 0 0 10.02 14.38
  L 10.02 188.43"
/>
<path stroke="#80bf80" vector-effect="non-scaling-stroke" d="
  M 225.98 14.35
  A 0.31 0.31 0.0 0 0 225.47 14.11
  L 218.13 20.14
  A 0.31 0.31 0.0 0 0 218.02 20.38
  L 218.02 182.43
  A 0.31 0.31 0.0 0 0 218.13 182.67
  L 225.47 188.72
  A 0.31 0.31 0.0 0 0 225.98 188.48
  L 225.98 14.35"
/>
<path stroke="#004080" vector-effect="non-scaling-stroke" d="
  M 135.87 181.98
  L 175.04 182.16"
/>
<path stroke="#804000" vector-effect="non-scaling-stroke" d="
  M 175.04 182.16
  L 215.28 182.19
  Q 216.05 182.19 216.05 181.41
  L 216.05 119.02
  A 0.52 0.52 0.0 0 0 215.57 118.50
  L 212.00 118.22"
/>
<path stroke="#80bf80" vector-effect="non-scaling-stroke" d="
  M 212.00 118.22
  L 177.57 118.17
  Q 177.16 118.17 176.94 118.52
  Q 176.68 118.92 177.04 119.24"
/>
<path stroke="#804000" vector-effect="non-scaling-stroke" d="
  M 177.04 119.24
  L 173.97 118.22"
/>
<path stroke="#80bf80" vector-effect="non-scaling-stroke" d="
  M 173.97 118.22
  L 138.81 118.19
  Q 138.29 118.19 138.06 118.66
  Q 137.91 118.96 138.15 119.24"
/>
<path stroke="#804000" vector-effect="non-scaling-stroke" d="
  M 138.15 119.24
  L 135.87 118.22"
/>
<path stroke="#80bf80" vector-effect="non-scaling-stroke" d="
  M 135.87 118.22
  L 100.03 118.17"
/>
<path stroke="#804000" vector-effect="non-scaling-stroke" d="
  M 100.03 118.17
  L 97.79 118.58"
/>
<path stroke="#80bf80" vector-effect="non-scaling-stroke" d="
  M 97.79 118.58
  L 97.49 85.42
  A 1.43 1.43 0.0 0 1 98.92 83.97
  L 215.26 83.97
  A 0.73 0.72 -90.0 0 0 215.98 83.24
  L 215.98 21.25
  A 0.23 0.23 0.0 0 0 215.75 21.02
  L 20.63 21.02
  Q 20.02 21.02 20.02 21.62
  L 20.02 181.45
  Q 20.02 181.93 20.51 181.93
  L 135.87 181.98"
/>
<path stroke="#ff8080" vector-effect="non-scaling-stroke" d="
  M 97.79 118.58
  L 97.53 149.63
  Q 97.53 150.30 98.19 150.29
  L 135.95 150.07"
/>
<path stroke="#8080ff" vector-effect="non-scaling-stroke" d="
  M 135.95 150.07
  L 135.87 181.98"
/>
<path stroke="#ff8080" vector-effect="non-scaling-stroke" d="
  M 138.15 119.24
  L 138.13 146.38
  A 0.56 0.56 0.0 0 0 138.69 146.94
  L 173.27 146.94
  A 0.73 0.73 0.0 0 0 174.00 146.21
  L 173.97 118.22"
/>
<path stroke="#ff8080" vector-effect="non-scaling-stroke" d="
  M 177.04 119.24
  L 177.03 146.41
  Q 177.03 146.94 177.56 146.94
  L 211.26 146.93
  A 0.76 0.75 -90.0 0 0 212.01 146.17
  L 212.00 118.22"
/>
<path stroke="#800080" vector-effect="non-scaling-stroke" d="
  M 175.04 182.16
  Q 174.04 180.66 173.72 178.99"
/>
<path stroke="#ff8080" vector-effect="non-scaling-stroke" d="
  M 173.72 178.99
  L 173.92 150.67
  Q 173.92 150.06 173.31 150.06
  Q 156.23 150.04 139.20 150.07
  Q 138.86 150.07 138.54 150.18
  Q 137.91 150.41 138.04 150.67"
/>
<path stroke="#800080" vector-effect="non-scaling-stroke" d="
  M 138.04 150.67
  L 135.95 150.07"
/>
<path stroke="#8080ff" vector-effect="non-scaling-stroke" d="
  M 173.72 178.99
  L 138.62 178.98
  Q 138.02 178.98 138.02 178.38
  L 138.04 150.67"
/>
<path stroke="#ff8080" vector-effect="non-scaling-stroke" d="
  M 135.87 118.22
  L 135.88 146.36
  A 0.62 0.62 0.0 0 1 135.26 146.98
  L 100.52 146.98
  A 0.48 0.48 0.0 0 1 100.04 146.50
  L 100.03 118.17"
/>
<path stroke="#80bf80" vector-effect="non-scaling-stroke" d="
  M 135.80 87.39
  A 0.37 0.37 0.0 0 0 135.43 87.02
  L 100.43 87.02
  A 0.37 0.37 0.0 0 0 100.06 87.39
  L 100.06 115.47
  A 0.37 0.37 0.0 0 0 100.43 115.84
  L 135.43 115.84
  A 0.37 0.37 0.0 0 0 135.80 115.47
  L 135.80 87.39"
/>
<path stroke="#80bf80" vector-effect="non-scaling-stroke" d="
  M 173.94 87.46
  A 0.43 0.43 0.0 0 0 173.51 87.03
  L 138.61 87.03
  A 0.43 0.43 0.0 0 0 138.18 87.46
  L 138.18 115.40
  A 0.43 0.43 0.0 0 0 138.61 115.83
  L 173.51 115.83
  A 0.43 0.43 0.0 0 0 173.94 115.40
  L 173.94 87.46"
/>
<path stroke="#80bf80" vector-effect="non-scaling-stroke" d="
  M 211.98 87.53
  A 0.51 0.51 0.0 0 0 211.47 87.02
  L 177.57 87.02
  A 0.51 0.51 0.0 0 0 177.06 87.53
  L 177.06 115.33
  A 0.51 0.51 0.0 0 0 177.57 115.84
  L 211.47 115.84
  A 0.51 0.51 0.0 0 0 211.98 115.33
  L 211.98 87.53"
/>
<path stroke="#80bf80" vector-effect="non-scaling-stroke" d="
  M 224.10 190.99
  A 0.31 0.31 0.0 0 0 224.29 190.44
  L 216.59 184.09
  A 0.31 0.31 0.0 0 0 216.39 184.02
  L 19.64 184.01
  A 0.31 0.31 0.0 0 0 19.44 184.08
  L 11.72 190.44
  A 0.31 0.31 0.0 0 0 11.91 190.99
  L 224.10 190.99"
/>
<path stroke="#ff8080" vector-effect="non-scaling-stroke" d="
  M 211.98 150.58
  A 0.52 0.52 0.0 0 0 211.46 150.06
  L 177.58 150.06
  A 0.52 0.52 0.0 0 0 177.06 150.58
  L 177.06 178.46
  A 0.52 0.52 0.0 0 0 177.58 178.98
  L 211.46 178.98
  A 0.52 0.52 0.0 0 0 211.98 178.46
  L 211.98 150.58"
/>
</g>
<path fill="#ffffff" d="
  M 0.00 0.00
  L 239.00 0.00
  L 239.00 206.00
  L 0.00 206.00
  L 0.00 0.00
  Z
  M 228.03 190.05
  L 228.02 12.99
  A 1.91 1.87 61.6 0 1 228.31 11.98
  Q 228.94 10.95 228.16 10.10
  Q 227.84 9.74 227.37 9.80
  Q 225.81 9.98 223.25 9.98
  Q 115.79 10.00 8.33 9.97
  Q 7.73 9.97 7.52 10.54
  Q 7.24 11.34 7.72 12.08
  A 1.55 1.55 0.0 0 1 7.98 12.94
  L 7.98 189.77
  Q 7.98 190.45 7.60 191.02
  Q 6.96 191.99 7.91 192.79
  Q 8.17 193.01 8.52 193.01
  L 227.35 193.02
  Q 228.06 193.02 228.42 192.40
  Q 228.86 191.62 228.30 190.87
  A 1.39 1.34 -64.3 0 1 228.03 190.05
  Z"
/>
<path fill="#007f00" d="
  M 228.30 190.87
  Q 228.86 191.62 228.42 192.40
  Q 228.06 193.02 227.35 193.02
  L 8.52 193.01
  Q 8.17 193.01 7.91 192.79
  Q 6.96 191.99 7.60 191.02
  Q 7.98 190.45 7.98 189.77
  L 7.98 12.94
  A 1.55 1.55 0.0 0 0 7.72 12.08
  Q 7.24 11.34 7.52 10.54
  Q 7.73 9.97 8.33 9.97
  Q 115.79 10.00 223.25 9.98
  Q 225.81 9.98 227.37 9.80
  Q 227.84 9.74 228.16 10.10
  Q 228.94 10.95 228.31 11.98
  A 1.91 1.87 61.6 0 0 228.02 12.99
  L 228.03 190.05
  A 1.39 1.34 -64.3 0 0 228.30 190.87
  Z
  M 12.15 12.02
  A 0.31 0.31 0.0 0 0 11.96 12.57
  L 19.65 18.92
  A 0.31 0.31 0.0 0 0 19.85 18.99
  L 216.15 18.99
  A 0.31 0.31 0.0 0 0 216.35 18.92
  L 224.03 12.57
  A 0.31 0.31 0.0 0 0 223.83 12.02
  L 12.15 12.02
  Z
  M 10.02 188.43
  A 0.33 0.33 0.0 0 0 10.56 188.68
  L 17.87 182.65
  A 0.33 0.33 0.0 0 0 17.99 182.39
  L 17.98 20.40
  A 0.33 0.33 0.0 0 0 17.86 20.14
  L 10.56 14.12
  A 0.33 0.33 0.0 0 0 10.02 14.38
  L 10.02 188.43
  Z
  M 225.98 14.35
  A 0.31 0.31 0.0 0 0 225.47 14.11
  L 218.13 20.14
  A 0.31 0.31 0.0 0 0 218.02 20.38
  L 218.02 182.43
  A 0.31 0.31 0.0 0 0 218.13 182.67
  L 225.47 188.72
  A 0.31 0.31 0.0 0 0 225.98 188.48
  L 225.98 14.35
  Z
  M 135.87 181.98
  L 175.04 182.16
  L 215.28 182.19
  Q 216.05 182.19 216.05 181.41
  L 216.05 119.02
  A 0.52 0.52 0.0 0 0 215.57 118.50
  L 212.00 118.22
  L 177.57 118.17
  Q 177.16 118.17 176.94 118.52
  Q 176.68 118.92 177.04 119.24
  L 173.97 118.22
  L 138.81 118.19
  Q 138.29 118.19 138.06 118.66
  Q 137.91 118.96 138.15 119.24
  L 135.87 118.22
  L 100.03 118.17
  L 97.79 118.58
  L 97.49 85.42
  A 1.43 1.43 0.0 0 1 98.92 83.97
  L 215.26 83.97
  A 0.73 0.72 -90.0 0 0 215.98 83.24
  L 215.98 21.25
  A 0.23 0.23 0.0 0 0 215.75 21.02
  L 20.63 21.02
  Q 20.02 21.02 20.02 21.62
  L 20.02 181.45
  Q 20.02 181.93 20.51 181.93
  L 135.87 181.98
  Z
  M 135.80 87.39
  A 0.37 0.37 0.0 0 0 135.43 87.02
  L 100.43 87.02
  A 0.37 0.37 0.0 0 0 100.06 87.39
  L 100.06 115.47
  A 0.37 0.37 0.0 0 0 100.43 115.84
  L 135.43 115.84
  A 0.37 0.37 0.0 0 0 135.80 115.47
  L 135.80 87.39
  Z
  M 173.94 87.46
  A 0.43 0.43 0.0 0 0 173.51 87.03
  L 138.61 87.03
  A 0.43 0.43 0.0 0 0 138.18 87.46
  L 138.18 115.40
  A 0.43 0.43 0.0 0 0 138.61 115.83
  L 173.51 115.83
  A 0.43 0.43 0.0 0 0 173.94 115.40
  L 173.94 87.46
  Z
  M 211.98 87.53
  A 0.51 0.51 0.0 0 0 211.47 87.02
  L 177.57 87.02
  A 0.51 0.51 0.0 0 0 177.06 87.53
  L 177.06 115.33
  A 0.51 0.51 0.0 0 0 177.57 115.84
  L 211.47 115.84
  A 0.51 0.51 0.0 0 0 211.98 115.33
  L 211.98 87.53
  Z
  M 224.10 190.99
  A 0.31 0.31 0.0 0 0 224.29 190.44
  L 216.59 184.09
  A 0.31 0.31 0.0 0 0 216.39 184.02
  L 19.64 184.01
  A 0.31 0.31 0.0 0 0 19.44 184.08
  L 11.72 190.44
  A 0.31 0.31 0.0 0 0 11.91 190.99
  L 224.10 190.99
  Z"
/>
<path fill="#ffffff" d="
  M 12.15 12.02
  L 223.83 12.02
  A 0.31 0.31 0.0 0 1 224.03 12.57
  L 216.35 18.92
  A 0.31 0.31 0.0 0 1 216.15 18.99
  L 19.85 18.99
  A 0.31 0.31 0.0 0 1 19.65 18.92
  L 11.96 12.57
  A 0.31 0.31 0.0 0 1 12.15 12.02
  Z"
/>
<path fill="#ffffff" d="
  M 10.02 188.43
  L 10.02 14.38
  A 0.33 0.33 0.0 0 1 10.56 14.12
  L 17.86 20.14
  A 0.33 0.33 0.0 0 1 17.98 20.40
  L 17.99 182.39
  A 0.33 0.33 0.0 0 1 17.87 182.65
  L 10.56 188.68
  A 0.33 0.33 0.0 0 1 10.02 188.43
  Z"
/>
<path fill="#ffffff" d="
  M 225.98 14.35
  L 225.98 188.48
  A 0.31 0.31 0.0 0 1 225.47 188.72
  L 218.13 182.67
  A 0.31 0.31 0.0 0 1 218.02 182.43
  L 218.02 20.38
  A 0.31 0.31 0.0 0 1 218.13 20.14
  L 225.47 14.11
  A 0.31 0.31 0.0 0 1 225.98 14.35
  Z"
/>
<path fill="#ffffff" d="
  M 97.79 118.58
  L 97.53 149.63
  Q 97.53 150.30 98.19 150.29
  L 135.95 150.07
  L 135.87 181.98
  L 20.51 181.93
  Q 20.02 181.93 20.02 181.45
  L 20.02 21.62
  Q 20.02 21.02 20.63 21.02
  L 215.75 21.02
  A 0.23 0.23 0.0 0 1 215.98 21.25
  L 215.98 83.24
  A 0.73 0.72 -90.0 0 1 215.26 83.97
  L 98.92 83.97
  A 1.43 1.43 0.0 0 0 97.49 85.42
  L 97.79 118.58
  Z"
/>
<rect fill="#ffffff" x="100.06" y="87.02" width="35.74" height="28.82" rx="0.37"/>
<rect fill="#ffffff" x="138.18" y="87.03" width="35.76" height="28.80" rx="0.43"/>
<rect fill="#ffffff" x="177.06" y="87.02" width="34.92" height="28.82" rx="0.51"/>
<path fill="#ffffff" d="
  M 135.87 118.22
  L 135.88 146.36
  A 0.62 0.62 0.0 0 1 135.26 146.98
  L 100.52 146.98
  A 0.48 0.48 0.0 0 1 100.04 146.50
  L 100.03 118.17
  L 135.87 118.22
  Z"
/>
<path fill="#ff0000" d="
  M 100.03 118.17
  L 100.04 146.50
  A 0.48 0.48 0.0 0 0 100.52 146.98
  L 135.26 146.98
  A 0.62 0.62 0.0 0 0 135.88 146.36
  L 135.87 118.22
  L 138.15 119.24
  L 138.13 146.38
  A 0.56 0.56 0.0 0 0 138.69 146.94
  L 173.27 146.94
  A 0.73 0.73 0.0 0 0 174.00 146.21
  L 173.97 118.22
  L 177.04 119.24
  L 177.03 146.41
  Q 177.03 146.94 177.56 146.94
  L 211.26 146.93
  A 0.76 0.75 -90.0 0 0 212.01 146.17
  L 212.00 118.22
  L 215.57 118.50
  A 0.52 0.52 0.0 0 1 216.05 119.02
  L 216.05 181.41
  Q 216.05 182.19 215.28 182.19
  L 175.04 182.16
  Q 174.04 180.66 173.72 178.99
  L 173.92 150.67
  Q 173.92 150.06 173.31 150.06
  Q 156.23 150.04 139.20 150.07
  Q 138.86 150.07 138.54 150.18
  Q 137.91 150.41 138.04 150.67
  L 135.95 150.07
  L 98.19 150.29
  Q 97.53 150.30 97.53 149.63
  L 97.79 118.58
  L 100.03 118.17
  Z
  M 211.98 150.58
  A 0.52 0.52 0.0 0 0 211.46 150.06
  L 177.58 150.06
  A 0.52 0.52 0.0 0 0 177.06 150.58
  L 177.06 178.46
  A 0.52 0.52 0.0 0 0 177.58 178.98
  L 211.46 178.98
  A 0.52 0.52 0.0 0 0 211.98 178.46
  L 211.98 150.58
  Z"
/>
<path fill="#ffffff" d="
  M 173.97 118.22
  L 174.00 146.21
  A 0.73 0.73 0.0 0 1 173.27 146.94
  L 138.69 146.94
  A 0.56 0.56 0.0 0 1 138.13 146.38
  L 138.15 119.24
  Q 137.91 118.96 138.06 118.66
  Q 138.29 118.19 138.81 118.19
  L 173.97 118.22
  Z"
/>
<path fill="#ffffff" d="
  M 212.00 118.22
  L 212.01 146.17
  A 0.76 0.75 90.0 0 1 211.26 146.93
  L 177.56 146.94
  Q 177.03 146.94 177.03 146.41
  L 177.04 119.24
  Q 176.68 118.92 176.94 118.52
  Q 177.16 118.17 177.57 118.17
  L 212.00 118.22
  Z"
/>
<path fill="#ffffff" d="
  M 173.72 178.99
  L 138.62 178.98
  Q 138.02 178.98 138.02 178.38
  L 138.04 150.67
  Q 137.91 150.41 138.54 150.18
  Q 138.86 150.07 139.20 150.07
  Q 156.23 150.04 173.31 150.06
  Q 173.92 150.06 173.92 150.67
  L 173.72 178.99
  Z"
/>
<rect fill="#ffffff" x="177.06" y="150.06" width="34.92" height="28.92" rx="0.52"/>
<path fill="#0000ff" d="
  M 135.95 150.07
  L 138.04 150.67
  L 138.02 178.38
  Q 138.02 178.98 138.62 178.98
  L 173.72 178.99
  Q 174.04 180.66 175.04 182.16
  L 135.87 181.98
  L 135.95 150.07
  Z"
/>
<path fill="#ffffff" d="
  M 224.10 190.99
  L 11.91 190.99
  A 0.31 0.31 0.0 0 1 11.72 190.44
  L 19.44 184.08
  A 0.31 0.31 0.0 0 1 19.64 184.01
  L 216.39 184.02
  A 0.31 0.31 0.0 0 1 216.59 184.09
  L 224.29 190.44
  A 0.31 0.31 0.0 0 1 224.10 190.99
  Z"
/>
</svg>
